<svg height="512pt" viewBox="-65 0 512 512" width="512pt" xmlns="http://www.w3.org/2000/svg"><path d="m270.347656 77.449219c-4.203125 0-7.613281-3.40625-7.613281-7.609375v-29.96875c0-13.589844-11.054687-24.648438-24.644531-24.648438h-94.199219c-13.589844 0-24.648437 11.058594-24.648437 24.648438v29.96875c0 4.203125-3.40625 7.609375-7.613282 7.609375-4.203125 0-7.609375-3.40625-7.609375-7.609375v-29.96875c0-21.984375 17.886719-39.871094 39.871094-39.871094h94.199219c21.984375 0 39.871094 17.886719 39.871094 39.871094v29.96875c-.003907 4.203125-3.410157 7.609375-7.613282 7.609375zm0 0" fill="#00ba66"/><path d="m32.960938 141.566406v323.554688c0 25.890625 20.988281 46.878906 46.878906 46.878906h222.300781c25.890625 0 46.878906-20.988281 46.878906-46.878906v-323.554688zm0 0" fill="#43cb8e"/><path d="m62.730469 465.121094v-323.554688h-29.769531v323.554688c0 25.890625 20.988281 46.878906 46.878906 46.878906h29.769531c-25.890625 0-46.878906-20.988281-46.878906-46.878906zm0 0" fill="#00ba66"/><path d="m348.6875 96.066406c-2.300781-16.476562-16.539062-29.273437-33.625-29.273437h-248.144531c-17.089844 0-31.324219 12.796875-33.625 29.273437zm0 0" fill="#43cb8e"/><g fill="#00ba66"><path d="m96.6875 66.792969h-29.773438c-17.085937 0-31.320312 12.796875-33.621093 29.273437h29.769531c2.300781-16.480468 16.535156-29.273437 33.625-29.273437zm0 0"/><path d="m92.914062 179.65625h-9.519531c-6.984375 0-12.699219 5.714844-12.699219 12.699219v253.945312c0 6.984375 5.714844 12.695313 12.699219 12.695313h9.519531c6.984376 0 12.699219-5.710938 12.699219-12.695313v-253.945312c0-6.984375-5.714843-12.699219-12.699219-12.699219zm0 0"/><path d="m161.472656 179.65625h-9.523437c-6.984375 0-12.695313 5.714844-12.695313 12.699219v253.945312c0 6.984375 5.710938 12.695313 12.695313 12.695313h9.523437c6.980469 0 12.695313-5.710938 12.695313-12.695313v-253.945312c.003906-6.984375-5.710938-12.699219-12.695313-12.699219zm0 0"/><path d="m230.027344 179.65625h-9.519532c-6.984374 0-12.699218 5.714844-12.699218 12.699219v253.945312c0 6.984375 5.714844 12.695313 12.699218 12.695313h9.519532c6.984375 0 12.699218-5.710938 12.699218-12.695313v-253.945312c0-6.984375-5.714843-12.699219-12.699218-12.699219zm0 0"/><path d="m298.585938 179.65625h-9.523438c-6.984375 0-12.699219 5.714844-12.699219 12.699219v253.945312c0 6.984375 5.714844 12.695313 12.699219 12.695313h9.523438c6.984374 0 12.695312-5.710938 12.695312-12.695313v-253.945312c0-6.984375-5.710938-12.699219-12.695312-12.699219zm0 0"/></g><path d="m96.40625 446.300781v-253.945312c0-3.914063 1.792969-7.429688 4.601562-9.761719-2.199218-1.832031-5.023437-2.9375-8.09375-2.9375h-9.519531c-6.984375 0-12.699219 5.714844-12.699219 12.699219v253.945312c0 6.984375 5.714844 12.695313 12.699219 12.695313h9.519531c3.070313 0 5.894532-1.101563 8.09375-2.933594-2.804687-2.332031-4.601562-5.847656-4.601562-9.761719zm0 0" fill="#01a755"/><path d="m164.960938 446.300781v-253.945312c0-3.914063 1.796874-7.429688 4.605468-9.761719-2.203125-1.832031-5.023437-2.9375-8.09375-2.9375h-9.523437c-6.984375 0-12.695313 5.714844-12.695313 12.699219v253.945312c0 6.984375 5.714844 12.695313 12.695313 12.695313h9.523437c3.070313 0 5.890625-1.101563 8.09375-2.933594-2.808594-2.332031-4.605468-5.847656-4.605468-9.761719zm0 0" fill="#01a755"/><path d="m233.519531 446.300781v-253.945312c0-3.914063 1.796875-7.429688 4.601563-9.761719-2.199219-1.832031-5.023438-2.9375-8.089844-2.9375h-9.523438c-6.984374 0-12.699218 5.714844-12.699218 12.699219v253.945312c0 6.984375 5.714844 12.695313 12.699218 12.695313h9.523438c3.066406 0 5.890625-1.101563 8.089844-2.933594-2.804688-2.332031-4.601563-5.847656-4.601563-9.761719zm0 0" fill="#01a755"/><path d="m302.074219 446.300781v-253.945312c0-3.914063 1.796875-7.429688 4.605469-9.761719-2.203126-1.832031-5.023438-2.9375-8.09375-2.9375h-9.523438c-6.984375 0-12.699219 5.714844-12.699219 12.699219v253.945312c0 6.984375 5.714844 12.695313 12.699219 12.695313h9.523438c3.066406 0 5.890624-1.101563 8.09375-2.933594-2.808594-2.332031-4.605469-5.847656-4.605469-9.761719zm0 0" fill="#01a755"/><path d="m369.28125 94.816406h-356.582031c-6.984375 0-12.699219 6-12.699219 13.332032v21.105468c0 7.328125 5.714844 13.328125 12.699219 13.328125h356.582031c6.984375 0 12.695312-5.996093 12.695312-13.328125v-21.105468c0-7.332032-5.710937-13.332032-12.695312-13.332032zm0 0" fill="#00ba66"/><path d="m369.28125 114.078125h-356.582031c-5.761719 0-10.648438-4.085937-12.1875-9.628906-.328125 1.175781-.511719 2.414062-.511719 3.695312v21.105469c0 7.332031 5.714844 13.332031 12.695312 13.332031h356.582032c6.984375 0 12.699218-6 12.699218-13.332031v-21.105469c0-1.28125-.183593-2.519531-.511718-3.695312-1.535156 5.542969-6.421875 9.628906-12.183594 9.628906zm0 0" fill="#01a755"/></svg>